<?xml version="1.0" standalone="no"?><!DOCTYPE svg PUBLIC "-//W3C//DTD SVG 1.1//EN" "http://www.w3.org/Graphics/SVG/1.1/DTD/svg11.dtd"><svg t="1622956028940" class="icon" viewBox="0 0 1024 1024" version="1.1" xmlns="http://www.w3.org/2000/svg" p-id="2481" xmlns:xlink="http://www.w3.org/1999/xlink" width="200" height="200"><defs><style type="text/css"></style></defs><path d="M1024 701.269333V196.522667c0-54.186667-19.2-100.48-57.6-138.922667C928 19.2 881.664 0 827.477333 0H196.522667C142.336 0 96.042667 19.2 57.6 57.6 19.2 96 0 142.336 0 196.522667v630.954666c0 54.186667 19.2 100.48 57.6 138.922667 38.4 38.4 84.736 57.6 138.922667 57.6h630.954666c47.701333 0 89.770667-15.36 126.165334-46.122667a190.506667 190.506667 0 0 0 66.730666-116.48c-180.352-77.653333-312.234667-136.277333-395.52-175.914666-47.786667 57.429333-97.109333 100.693333-148.053333 129.834666-50.986667 29.098667-110.037333 43.690667-177.194667 43.690667-70.4 0-126.976-18.816-169.813333-56.448-42.88-37.589333-61.525333-83.498667-55.893333-137.685333 2.474667-16.213333 6.101333-31.573333 10.922666-46.122667 4.864-14.592 13.568-30.378667 26.112-47.36 12.544-16.981333 28.117333-31.146667 46.72-42.453333 18.56-11.349333 43.434667-19.84 74.624-25.472 31.146667-5.632 66.56-6.869333 106.112-3.669334 17.834667 1.621333 35.242667 3.84 52.181334 6.698667l40.064 6.656 41.813333 10.325333 34.005333 9.728 41.813334 13.952 40.064 13.354667a639.488 639.488 0 0 0 57.045333-139.52h-396.8v-38.826667h196.608V310.485333H204.928v-42.453333h240.213333v-101.973333c1.706667-11.306667 8.106667-16.981333 19.456-16.981334h98.261334v118.954667h256v42.453333h-256v71.594667h208.682666a777.813333 777.813333 0 0 1-84.906666 212.352c18.56 6.442667 55.765333 18.602667 111.573333 36.394667 55.808 17.834667 107.605333 34.005333 155.306667 48.554666l70.4 21.845334H1024zM283.861333 791.082667c-35.584 0-65.706667-4.864-90.410666-14.549334-24.661333-9.728-42.026667-22.272-52.181334-37.632a150.485333 150.485333 0 0 1-20.608-43.690666 95.274667 95.274667 0 0 1-2.986666-37.632c4.821333-22.613333 18.986667-43.434667 42.453333-62.464 23.466667-18.986667 54.186667-28.501333 92.202667-28.501334 87.338667 0 182.016 25.088 283.946666 75.264-76.842667 99.498667-160.981333 149.248-252.373333 149.248l-0.042667-0.042666z" fill="#00AAEE" p-id="2482"></path></svg>